<svg fill="#fff" height="24px" width="24px" version="1.1" id="Layer_1" xmlns="http://www.w3.org/2000/svg" xmlns:xlink="http://www.w3.org/1999/xlink" viewBox="0 0 24.00 24.00" xml:space="preserve" stroke="#fff"><g id="SVGRepo_bgCarrier" stroke-width="0"></g><g id="SVGRepo_tracerCarrier" stroke-linecap="round" stroke-linejoin="round" stroke="#CCCCCC" stroke-width="0.144"></g><g id="SVGRepo_iconCarrier"> <g> <path d="M6,12h1v1h6v-1h1v-1h1V5h-1V4h-1V3H7v1H6v1H5v6h1V12z M7,7h1V6h1V5h2v1h1v1h1v2h-1v1h-1v1H9v-1H8V9H7V7z"></path> <polygon points="17,15 16,15 16,14 4,14 4,15 3,15 3,16 2,16 2,21 4,21 4,18 5,18 5,17 6,17 6,16 14,16 14,17 15,17 15,18 16,18 16,19 16,20 16,21 18,21 18,16 17,16 "></polygon> <polygon points="20,7 20,6 20,5 18,5 18,7 16,7 16,9 18,9 18,11 20,11 20,9 22,9 22,7 "></polygon> </g> </g></svg>