<svg fill="#eb8307" height="8px" width="8px" version="1.1" id="Capa_1" xmlns="http://www.w3.org/2000/svg" xmlns:xlink="http://www.w3.org/1999/xlink" viewBox="0 0 512 512" xml:space="preserve" stroke="#eb8307"><g id="SVGRepo_bgCarrier" stroke-width="0"></g><g id="SVGRepo_tracerCarrier" stroke-linecap="round" stroke-linejoin="round"></g><g id="SVGRepo_iconCarrier"> <g> <g> <path d="M313.672,145.004h-18.876c-4.2,0-7.604,3.404-7.604,7.604v12.265c0,4.2,3.404,7.604,7.604,7.604s7.604-3.404,7.604-7.604 v-4.661h11.272c3.978,0,7.215,3.236,7.215,7.215v84.137c0,6.634-5.396,12.029-12.029,12.029H302.4v-71.039 c0-4.199-3.405-7.604-7.604-7.604c-4.2,0-7.604,3.404-7.604,7.604v78.643c0,4.2,3.404,7.604,7.604,7.604h14.061 c15.018,0,27.237-12.219,27.237-27.237v-84.137C336.095,155.063,326.036,145.004,313.672,145.004z"></path> </g> </g> <g> <g> <path d="M335.471,121.167h-12.674c-4.2,0-7.604,3.404-7.604,7.604c0,4.2,3.404,7.604,7.604,7.604h12.674 c5.103,0,9.255,4.152,9.255,9.255v125.57c0,8.951-7.283,16.234-16.234,16.234h-49.93V136.374h10.152 c4.2,0,7.604-3.404,7.604-7.604c0-4.2-3.404-7.604-7.604-7.604h-17.756c-4.2,0-7.604,3.404-7.604,7.604v166.265 c0,4.2,3.404,7.604,7.604,7.604h57.534c17.337,0,31.442-14.105,31.442-31.442V145.628 C359.933,132.141,348.96,121.167,335.471,121.167z"></path> </g> </g> <g> <g> <path d="M225.572,121.167h-23.839c-4.2,0-7.604,3.404-7.604,7.604v63.61h-32.085v-63.61c0-4.2-3.404-7.604-7.604-7.604h-23.839 c-4.2,0-7.604,3.404-7.604,7.604v166.265c0,4.2,3.405,7.604,7.604,7.604h23.839c4.2,0,7.604-3.404,7.604-7.604v-63.61h32.085 v63.61c0,4.2,3.404,7.604,7.604,7.604h23.839c4.2,0,7.604-3.404,7.604-7.604V128.771 C233.176,124.571,229.772,121.167,225.572,121.167z M217.968,287.431h-8.631v-63.61c0-4.2-3.404-7.604-7.604-7.604H154.44 c-4.2,0-7.604,3.404-7.604,7.604v63.61h-8.631V136.374h8.631v63.61c0,4.2,3.404,7.604,7.604,7.604h47.293 c4.2,0,7.604-3.404,7.604-7.604v-63.61h8.631V287.431z"></path> </g> </g> <g> <g> <path d="M504.396,44.613H69.453c-4.2,0-7.604,3.404-7.604,7.604s3.404,7.604,7.604,7.604h427.34v13.689H15.208V52.217 c0-4.2-3.404-7.604-7.604-7.604S0,48.019,0,52.217v28.897V342.69v28.897c0,4.2,3.404,7.604,7.604,7.604h178.563v43.589h-27.734 c-4.2,0-7.604,3.404-7.604,7.604v29.398c0,4.2,3.404,7.604,7.604,7.604h178.239c4.2,0,7.604-3.404,7.604-7.604v-29.398 c0-4.2-3.404-7.604-7.604-7.604h-27.734v-43.589h195.458c4.2,0,7.604-3.404,7.604-7.604V342.69V81.115V52.217 C512,48.019,508.596,44.613,504.396,44.613z M329.067,437.99v14.191h-163.03V437.99h27.734h107.562H329.067z M201.375,422.781 v-43.589h92.354v43.589H201.375z M496.792,363.984L496.792,363.984H301.333H193.771H15.208v-13.689h481.584V363.984z M496.792,335.087L496.792,335.087H15.208V88.719h481.584V335.087z"></path> </g> </g> </g></svg>